<svg xmlns="http://www.w3.org/2000/svg" data-name="Layer 1" viewBox="0 0 32 32" id="security"><path fill="#0478ed" d="m26.29 4-10-3a1 1 0 0 0-.57 0l-10 3A1 1 0 0 0 5 5v15c0 6.1 10.16 10.72 10.59 10.91a1 1 0 0 0 .82 0C16.84 30.72 27 26.1 27 20V5a1 1 0 0 0-.71-1Z"></path><path fill="#3f96ed" d="m26.29 4-10-3A1 1 0 0 0 16 1v30a1 1 0 0 0 .41-.09C16.84 30.72 27 26.1 27 20V5a1 1 0 0 0-.71-1Z"></path><path fill="#fff" d="M15.09 18a1 1 0 0 1-.71-.29l-2.12-2.12a1 1 0 0 1 1.41-1.41l1.41 1.41 4.24-4.24a1 1 0 0 1 1.41 1.41l-4.95 4.95a1 1 0 0 1-.69.29Z"></path></svg>