<svg xmlns="http://www.w3.org/2000/svg" viewBox="0 0 340 330" width="340" height="330" preserveAspectRatio="xMidYMid meet" style="width: 100%; height: 100%; transform: translate3d(0px, 0px, 0px);"><defs><clipPath id="__lottie_element_2"><rect width="340" height="330" x="0" y="0"></rect></clipPath></defs><g clip-path="url(#__lottie_element_2)"><g id="Trazado-1" transform="matrix(1,0,0,1,167.79400634765625,164.36700439453125)" opacity="1" style="display: block;"><g opacity="1" transform="matrix(1,0,0,1,0,0)"><path stroke-linecap="butt" stroke-linejoin="miter" fill-opacity="0" stroke-miterlimit="10" stroke-dasharray=" 1491.893 1491.893" stroke-dashoffset="0" stroke="rgb(255,255,255)" stroke-opacity="0.5" stroke-width="25" d=" M-0.01600000075995922,106.59500122070312 C-0.01600000075995922,106.59500122070312 -53.909000396728516,75.4020004272461 -53.909000396728516,75.4020004272461 C-66.40599822998047,68.16899871826172 -74.10099792480469,54.82400131225586 -74.10099792480469,40.3849983215332 C-74.10099792480469,40.3849983215332 -74.10099792480469,-87.51899719238281 -74.10099792480469,-87.51899719238281 C-74.10099792480469,-99.4489974975586 -67.76000213623047,-110.4800033569336 -57.45100021362305,-116.48400115966797 C-57.45100021362305,-116.48400115966797 -17.93600082397461,-139.5 -17.93600082397461,-139.5 C-6.775000095367432,-146.00100708007812 7.0229997634887695,-145.98899841308594 18.173999786376953,-139.468994140625 C18.173999786376953,-139.468994140625 57.465999603271484,-116.49299621582031 57.465999603271484,-116.49299621582031 C67.74800109863281,-110.48200225830078 74.06800079345703,-99.46600341796875 74.06800079345703,-87.55699920654297 C74.06800079345703,-87.55699920654297 74.06800079345703,40.58700180053711 74.06800079345703,40.58700180053711 C74.06800079345703,55.03499984741211 66.36299896240234,68.38600158691406 53.854000091552734,75.61599731445312 C53.854000091552734,75.61599731445312 -59.06399917602539,140.8780059814453 -59.06399917602539,140.8780059814453 C-67.90299987792969,145.9810028076172 -78.78700256347656,146.00100708007812 -87.6449966430664,140.9320068359375 C-87.6449966430664,140.9320068359375 -132.16000366210938,115.45700073242188 -132.16000366210938,115.45700073242188 C-141.8820037841797,109.89299774169922 -147.8560028076172,99.5260009765625 -147.79400634765625,88.32499694824219 C-147.79400634765625,88.32499694824219 -147.5240020751953,39.38100051879883 -147.5240020751953,39.38100051879883 C-147.46099853515625,27.885000228881836 -141.30799865722656,17.284000396728516 -131.35800170898438,11.526000022888184 C-131.35800170898438,11.526000022888184 -21.586999893188477,-51.999000549316406 -21.586999893188477,-51.999000549316406 C-8.152999877929688,-59.77299880981445 8.41100025177002,-59.77399826049805 21.84600067138672,-52.00199890136719 C21.84600067138672,-52.00199890136719 131.45599365234375,11.40999984741211 131.45599365234375,11.40999984741211 C141.4250030517578,17.177000045776367 147.58200073242188,27.80500030517578 147.62600708007812,39.321998596191406 C147.62600708007812,39.321998596191406 147.81399536132812,88.47899627685547 147.81399536132812,88.47899627685547 C147.85699462890625,99.68099975585938 141.86599731445312,110.03700256347656 132.13499450683594,115.58399963378906 C132.13499450683594,115.58399963378906 87.76300048828125,140.8769989013672 87.76300048828125,140.8769989013672 C78.91200256347656,145.9219970703125 68.04900360107422,145.89199829101562 59.224998474121094,140.79800415039062 C59.224998474121094,140.79800415039062 -0.01600000075995922,106.59500122070312 -0.01600000075995922,106.59500122070312 C-0.01600000075995922,106.59500122070312 -0.01600000075995922,106.59500122070312 -0.01600000075995922,106.59500122070312z"></path></g></g><g id="Trazado-1-2" transform="matrix(1,0,0,1,167.79400634765625,164.36700439453125)" opacity="1" style="display: block;"><g opacity="1" transform="matrix(1,0,0,1,0,0)"><path stroke-linecap="butt" stroke-linejoin="miter" fill-opacity="0" stroke-miterlimit="10" stroke-dasharray=" 200 1291.9" stroke-dashoffset="850.798583984375" stroke="rgb(255,255,255)" stroke-opacity="0.5" stroke-width="25" d=" M-0.01600000075995922,106.59500122070312 C-0.01600000075995922,106.59500122070312 -53.909000396728516,75.4020004272461 -53.909000396728516,75.4020004272461 C-66.40599822998047,68.16899871826172 -74.10099792480469,54.82400131225586 -74.10099792480469,40.3849983215332 C-74.10099792480469,40.3849983215332 -74.10099792480469,-87.51899719238281 -74.10099792480469,-87.51899719238281 C-74.10099792480469,-99.4489974975586 -67.76000213623047,-110.4800033569336 -57.45100021362305,-116.48400115966797 C-57.45100021362305,-116.48400115966797 -17.93600082397461,-139.5 -17.93600082397461,-139.5 C-6.775000095367432,-146.00100708007812 7.0229997634887695,-145.98899841308594 18.173999786376953,-139.468994140625 C18.173999786376953,-139.468994140625 57.465999603271484,-116.49299621582031 57.465999603271484,-116.49299621582031 C67.74800109863281,-110.48200225830078 74.06800079345703,-99.46600341796875 74.06800079345703,-87.55699920654297 C74.06800079345703,-87.55699920654297 74.06800079345703,40.58700180053711 74.06800079345703,40.58700180053711 C74.06800079345703,55.03499984741211 66.36299896240234,68.38600158691406 53.854000091552734,75.61599731445312 C53.854000091552734,75.61599731445312 -59.06399917602539,140.8780059814453 -59.06399917602539,140.8780059814453 C-67.90299987792969,145.9810028076172 -78.78700256347656,146.00100708007812 -87.6449966430664,140.9320068359375 C-87.6449966430664,140.9320068359375 -132.16000366210938,115.45700073242188 -132.16000366210938,115.45700073242188 C-141.8820037841797,109.89299774169922 -147.8560028076172,99.5260009765625 -147.79400634765625,88.32499694824219 C-147.79400634765625,88.32499694824219 -147.5240020751953,39.38100051879883 -147.5240020751953,39.38100051879883 C-147.46099853515625,27.885000228881836 -141.30799865722656,17.284000396728516 -131.35800170898438,11.526000022888184 C-131.35800170898438,11.526000022888184 -21.586999893188477,-51.999000549316406 -21.586999893188477,-51.999000549316406 C-8.152999877929688,-59.77299880981445 8.41100025177002,-59.77399826049805 21.84600067138672,-52.00199890136719 C21.84600067138672,-52.00199890136719 131.45599365234375,11.40999984741211 131.45599365234375,11.40999984741211 C141.4250030517578,17.177000045776367 147.58200073242188,27.80500030517578 147.62600708007812,39.321998596191406 C147.62600708007812,39.321998596191406 147.81399536132812,88.47899627685547 147.81399536132812,88.47899627685547 C147.85699462890625,99.68099975585938 141.86599731445312,110.03700256347656 132.13499450683594,115.58399963378906 C132.13499450683594,115.58399963378906 87.76300048828125,140.8769989013672 87.76300048828125,140.8769989013672 C78.91200256347656,145.9219970703125 68.04900360107422,145.89199829101562 59.224998474121094,140.79800415039062 C59.224998474121094,140.79800415039062 -0.01600000075995922,106.59500122070312 -0.01600000075995922,106.59500122070312 C-0.01600000075995922,106.59500122070312 -0.01600000075995922,106.59500122070312 -0.01600000075995922,106.59500122070312z"></path></g></g><g id="Trazado-1-3" transform="matrix(1,0,0,1,167.79400634765625,164.36700439453125)" opacity="1" style="display: block;"><g opacity="1" transform="matrix(1,0,0,1,0,0)"><path stroke-linecap="butt" stroke-linejoin="miter" fill-opacity="0" stroke-miterlimit="10" stroke-dasharray=" 50 1441.9" stroke-dashoffset="650.798583984375" stroke="rgb(255,255,255)" stroke-opacity="1" stroke-width="25" d=" M-0.01600000075995922,106.59500122070312 C-0.01600000075995922,106.59500122070312 -53.909000396728516,75.4020004272461 -53.909000396728516,75.4020004272461 C-66.40599822998047,68.16899871826172 -74.10099792480469,54.82400131225586 -74.10099792480469,40.3849983215332 C-74.10099792480469,40.3849983215332 -74.10099792480469,-87.51899719238281 -74.10099792480469,-87.51899719238281 C-74.10099792480469,-99.4489974975586 -67.76000213623047,-110.4800033569336 -57.45100021362305,-116.48400115966797 C-57.45100021362305,-116.48400115966797 -17.93600082397461,-139.5 -17.93600082397461,-139.5 C-6.775000095367432,-146.00100708007812 7.0229997634887695,-145.98899841308594 18.173999786376953,-139.468994140625 C18.173999786376953,-139.468994140625 57.465999603271484,-116.49299621582031 57.465999603271484,-116.49299621582031 C67.74800109863281,-110.48200225830078 74.06800079345703,-99.46600341796875 74.06800079345703,-87.55699920654297 C74.06800079345703,-87.55699920654297 74.06800079345703,40.58700180053711 74.06800079345703,40.58700180053711 C74.06800079345703,55.03499984741211 66.36299896240234,68.38600158691406 53.854000091552734,75.61599731445312 C53.854000091552734,75.61599731445312 -59.06399917602539,140.8780059814453 -59.06399917602539,140.8780059814453 C-67.90299987792969,145.9810028076172 -78.78700256347656,146.00100708007812 -87.6449966430664,140.9320068359375 C-87.6449966430664,140.9320068359375 -132.16000366210938,115.45700073242188 -132.16000366210938,115.45700073242188 C-141.8820037841797,109.89299774169922 -147.8560028076172,99.5260009765625 -147.79400634765625,88.32499694824219 C-147.79400634765625,88.32499694824219 -147.5240020751953,39.38100051879883 -147.5240020751953,39.38100051879883 C-147.46099853515625,27.885000228881836 -141.30799865722656,17.284000396728516 -131.35800170898438,11.526000022888184 C-131.35800170898438,11.526000022888184 -21.586999893188477,-51.999000549316406 -21.586999893188477,-51.999000549316406 C-8.152999877929688,-59.77299880981445 8.41100025177002,-59.77399826049805 21.84600067138672,-52.00199890136719 C21.84600067138672,-52.00199890136719 131.45599365234375,11.40999984741211 131.45599365234375,11.40999984741211 C141.4250030517578,17.177000045776367 147.58200073242188,27.80500030517578 147.62600708007812,39.321998596191406 C147.62600708007812,39.321998596191406 147.81399536132812,88.47899627685547 147.81399536132812,88.47899627685547 C147.85699462890625,99.68099975585938 141.86599731445312,110.03700256347656 132.13499450683594,115.58399963378906 C132.13499450683594,115.58399963378906 87.76300048828125,140.8769989013672 87.76300048828125,140.8769989013672 C78.91200256347656,145.9219970703125 68.04900360107422,145.89199829101562 59.224998474121094,140.79800415039062 C59.224998474121094,140.79800415039062 -0.01600000075995922,106.59500122070312 -0.01600000075995922,106.59500122070312 C-0.01600000075995922,106.59500122070312 -0.01600000075995922,106.59500122070312 -0.01600000075995922,106.59500122070312z"></path></g></g></g></svg>