<svg version="1.2" xmlns="http://www.w3.org/2000/svg" viewBox="0 0 18 18" width="18" height="18">
	<title>logo-footer-svg</title>
	<style>
		.s0 { fill: #ffffff } 
	</style>
	<path id="Layer" fill-rule="evenodd" class="s0" d="m16.7 9.6q0.3 0.6 0.3 1.2v2.3q0 0.6-0.3 1.1-0.3 0.6-0.9 0.9l-2 1.1q-0.5 0.3-1.1 0.3-0.6 0-1.2-0.3l-2.5-1.4-2.5 1.4q-0.6 0.3-1.2 0.3-0.6 0-1.1-0.3l-2-1.1q-0.6-0.3-0.9-0.9-0.3-0.5-0.3-1.1v-2.3q0-0.6 0.3-1.2 0.3-0.5 0.9-0.8l2.5-1.5v-2.9q0-0.6 0.3-1.1 0.3-0.5 0.8-0.8l2-1.2q0.6-0.3 1.2-0.3 0.6 0 1.2 0.3l2 1.2q0.5 0.3 0.8 0.8 0.3 0.5 0.3 1.1v2.9l2.5 1.5q0.6 0.3 0.9 0.8zm-1 1.2q0-0.3-0.1-0.5-0.1-0.3-0.4-0.4l-1.9-1.1v2q0 0.7-0.3 1.3-0.4 0.6-1 1l-1.7 1 1.9 1q0.2 0.2 0.5 0.2 0.3 0 0.5-0.2l2-1.1q0.3-0.2 0.4-0.4 0.1-0.2 0.1-0.5zm-10.4 4.5q0.3 0 0.5-0.2l1.9-1-1.7-1q-0.6-0.4-1-1-0.3-0.6-0.3-1.3v-2l-1.9 1.1q-0.3 0.1-0.4 0.4-0.1 0.2-0.1 0.5v2.3q0 0.3 0.1 0.5 0.1 0.2 0.4 0.4l2 1.1q0.2 0.2 0.5 0.2zm0.6-8.7l1.8-1q0.6-0.3 1.3-0.3 0.7 0 1.3 0.3l1.8 1v-2.2q0-0.2-0.2-0.5-0.1-0.2-0.4-0.4l-2-1.1q-0.2-0.1-0.5-0.2-0.3 0.1-0.5 0.2l-2 1.1q-0.3 0.2-0.4 0.4-0.2 0.3-0.2 0.5zm5.5 5.4q0.3-0.2 0.5-0.5 0.2-0.3 0.2-0.7v-2.7l-2.4-1.4q-0.3-0.1-0.7-0.1-0.4 0-0.7 0.1l-2.4 1.4v2.7q0 0.4 0.2 0.7 0.2 0.3 0.5 0.5l2.4 1.4z"/>
</svg>